<svg width="25" height="24" viewBox="0 0 25 24" fill="none" xmlns="http://www.w3.org/2000/svg">
<path d="M13.4495 17.2165C13.5299 17.3172 13.5812 17.3962 13.646 17.4611C15.2206 19.0383 16.7965 20.6135 18.3724 22.1894C18.7507 22.5677 19.0073 22.5711 19.3802 22.1982C20.3185 21.262 21.2554 20.3244 22.1922 19.3869C22.5773 19.0018 22.5752 18.7485 22.1862 18.3601C20.6103 16.7842 19.0344 15.2083 17.4585 13.6318C17.3956 13.5689 17.3362 13.5021 17.2619 13.4237C17.3632 13.3683 17.4423 13.3224 17.524 13.2819C18.6169 12.7354 19.7105 12.1896 20.8035 11.6431C21.7458 11.1723 22.6867 10.6988 23.6304 10.2293C23.8614 10.1145 24.0154 9.94902 24.0025 9.68018C23.9897 9.41134 23.8222 9.25598 23.5797 9.16816C23.5324 9.1506 23.4858 9.13101 23.4385 9.11277C16.5304 6.3487 9.62085 3.58463 2.71134 0.820555C2.10881 0.579407 1.50425 0.343664 0.904424 0.0957621C0.638284 -0.013666 0.384978 -0.0717574 0.156665 0.160608C-0.0729988 0.39365 -0.0122054 0.651684 0.106004 0.910394C0.112759 0.92593 0.120189 0.94079 0.126944 0.956326C2.55193 7.02148 4.97758 13.086 7.40256 19.1511C7.99429 20.6304 8.58668 22.1084 9.17706 23.5884C9.27297 23.8288 9.42968 23.9923 9.69785 23.9997C9.95453 24.0072 10.1227 23.8633 10.2281 23.6383C10.2463 23.6005 10.2653 23.5627 10.2842 23.5249C11.2832 21.5268 12.2816 19.5287 13.2813 17.5306C13.3245 17.4421 13.3745 17.3564 13.4495 17.2165Z" fill="white"/>
<path d="M13.4493 17.2165C13.3736 17.3564 13.3243 17.4421 13.2798 17.53C12.28 19.528 11.2817 21.5261 10.2826 23.5242C10.2637 23.562 10.2448 23.5992 10.2266 23.6377C10.1212 23.8626 9.953 24.0065 9.69632 23.9991C9.42815 23.9909 9.27144 23.8282 9.17552 23.5877C8.58583 22.1077 7.99276 20.6297 7.40103 19.1504C4.97673 13.086 2.55175 7.02148 0.126089 0.956326C0.12001 0.94079 0.11258 0.925254 0.10515 0.910394C-0.0130599 0.651008 -0.0738533 0.39365 0.155811 0.160608C0.384799 -0.0717574 0.638105 -0.013666 0.904245 0.0957621C1.50407 0.342989 2.10863 0.579407 2.71116 0.820555C9.62067 3.58463 16.5302 6.3487 23.4397 9.11277C23.487 9.13169 23.5336 9.15128 23.5809 9.16816C23.8227 9.25598 23.9909 9.41201 24.0037 9.68018C24.0165 9.94902 23.8625 10.1145 23.6315 10.2293C22.6879 10.6981 21.7469 11.1716 20.8046 11.6431C19.7117 12.1896 18.6181 12.7354 17.5252 13.2819C17.4434 13.3224 17.3644 13.3683 17.2631 13.4237C17.3374 13.5027 17.3968 13.5689 17.4596 13.6318C19.0355 15.2083 20.6114 16.7842 22.1873 18.3601C22.5757 18.7492 22.5778 19.0018 22.1934 19.3869C21.2565 20.3244 20.3196 21.262 19.3814 22.1982C19.0078 22.5711 18.7518 22.5677 18.3736 22.1894C16.7977 20.6135 15.2218 19.0383 13.6472 17.4611C13.581 17.3962 13.5297 17.3179 13.4493 17.2165Z" fill="white"/>
</svg>
