<svg width="141" height="49" viewBox="0 0 141 49" fill="none" xmlns="http://www.w3.org/2000/svg">
<path d="M0 35.152C0 36.076 1.764 37 2.772 37C3.15 37 3.276 36.832 3.276 36.496C3.276 34.816 3.864 31.12 4.704 27.088C4.872 27.172 5.04 27.256 5.25 27.298C5.544 27.76 5.838 28.18 6.132 28.6C10.5 34.69 16.128 41.2 17.178 40.696C17.892 40.36 19.908 38.218 19.656 37.672C19.614 37.588 19.572 37.546 19.488 37.546C19.236 37.42 18.984 37.294 18.732 37.126C15.414 34.69 11.424 30.112 8.316 25.786C9.324 24.988 10.29 24.106 11.256 23.224C16.758 18.142 22.512 11.8 21.882 10.792C21.462 10.12 19.11 8.398 18.564 8.734C18.522 8.776 18.48 8.818 18.438 8.902C18.354 9.196 18.312 9.448 18.144 9.7C15.708 14.068 10.5 20.116 6.048 23.98C5.838 23.896 5.67 23.812 5.46 23.728C6.552 19.108 7.896 14.614 9.072 12.556C9.198 12.262 9.366 12.094 9.576 11.842C9.618 11.8 9.66 11.716 9.66 11.632C9.66 11.002 6.846 9.91 6.006 9.91C4.242 9.91 0 28.054 0 35.152ZM22.9356 37C27.6816 37 31.0416 28.894 32.5536 24.778C32.8476 24.064 31.7556 23.602 31.5036 24.316C30.0756 28.138 27.0096 35.026 23.6076 35.026C21.6756 35.026 21.0036 33.22 21.0876 30.994C24.3216 30.994 28.8996 27.97 28.8996 24.064C28.8996 22.216 26.0856 20.074 24.4896 20.074C18.4836 20.074 12.8136 37 22.9356 37ZM24.6156 22.594C25.2456 22.09 25.9596 22.384 25.9596 23.266C25.9596 26.626 23.4396 30.028 21.1716 30.028C21.5076 27.172 22.9356 23.854 24.6156 22.594ZM29.0801 34.984C29.0801 35.866 30.7181 37 31.7261 37C31.9781 37 32.2301 36.958 32.2301 36.538C32.4401 33.682 35.9681 25.744 38.7821 22.72C37.5221 26.248 36.3881 31.204 35.9681 34.774C35.8421 35.866 36.9341 37 38.4041 37C42.0161 37 45.6701 27.592 46.7621 24.778C47.0141 24.064 45.9641 23.644 45.6701 24.358C44.5781 27.214 42.6461 32.128 40.0841 34.69C39.6641 35.11 39.3701 35.026 39.4961 34.396C40.0001 31.456 41.1341 26.92 42.4361 23.308C42.6041 22.93 42.7301 22.594 42.8981 22.258C42.9821 22.09 43.0241 21.964 43.0241 21.796C43.0241 20.998 40.7981 20.242 40.2101 20.242C39.9161 20.242 39.6221 20.326 39.4121 20.536C37.3961 22.216 35.1701 26.206 33.6581 29.44C34.2041 27.172 34.9601 24.778 35.7161 22.762C35.8841 22.342 36.3461 21.796 35.9261 21.46C35.4221 20.998 34.0361 20.242 33.1961 20.242C32.9861 20.242 32.7341 20.452 32.6081 20.788C30.8441 24.82 29.4581 30.574 29.0801 34.984ZM43.0254 34.984C43.0254 35.866 44.6634 37 45.6714 37C45.9234 37 46.1754 36.958 46.1754 36.538C46.3854 33.682 49.9134 25.744 52.7274 22.72C51.4674 26.248 50.3334 31.204 49.9134 34.774C49.7874 35.866 50.8794 37 52.3494 37C55.9614 37 59.6154 27.592 60.7074 24.778C60.9594 24.064 59.9094 23.644 59.6154 24.358C58.5234 27.214 56.5914 32.128 54.0294 34.69C53.6094 35.11 53.3154 35.026 53.4414 34.396C53.9454 31.456 55.0794 26.92 56.3814 23.308C56.5494 22.93 56.6754 22.594 56.8434 22.258C56.9274 22.09 56.9694 21.964 56.9694 21.796C56.9694 20.998 54.7434 20.242 54.1554 20.242C53.8614 20.242 53.5674 20.326 53.3574 20.536C51.3414 22.216 49.1154 26.206 47.6034 29.44C48.1494 27.172 48.9054 24.778 49.6614 22.762C49.8294 22.342 50.2914 21.796 49.8714 21.46C49.3674 20.998 47.9814 20.242 47.1414 20.242C46.9314 20.242 46.6794 20.452 46.5534 20.788C44.7894 24.82 43.4034 30.574 43.0254 34.984ZM68.1847 20.788C67.7227 21.796 67.3867 22.804 67.0927 23.854C67.0507 24.064 66.9667 24.274 66.9247 24.484C65.9167 27.424 63.3127 34.816 61.5067 34.816C61.0027 34.816 60.7087 34.27 60.9187 33.304C61.5487 30.238 62.6407 26.038 63.9007 22.762C64.0267 22.342 64.5307 21.796 64.0687 21.46C63.5647 20.998 62.1787 20.242 61.3807 20.242C61.1707 20.242 60.9187 20.452 60.7507 20.788C59.3227 24.106 58.1467 28.6 57.5167 32.548C57.4747 33.094 57.3907 33.598 57.3067 34.144C57.1807 35.362 58.6927 37 60.2887 37C62.1787 37 63.7327 34.858 64.9507 32.296C64.6567 33.556 64.4047 34.774 64.1107 35.992C62.3047 37.252 59.9107 38.386 58.3567 40.15C57.0967 41.62 56.3827 44.014 57.6007 45.694C58.2307 46.576 59.2807 47.038 60.2887 47.038C63.6067 47.038 64.9927 45.148 65.9587 42.376C66.9247 39.772 67.6387 37.042 68.2687 34.312C71.0407 32.002 73.7707 28.978 75.3667 24.736C75.6607 24.064 74.5687 23.644 74.3167 24.358C72.9727 27.76 70.9567 30.322 68.7307 32.38L68.8147 32.002C69.4027 29.398 70.2007 26.29 71.0827 23.35C71.2087 22.972 71.3347 22.636 71.5027 22.3C71.6707 22.006 71.7547 21.67 71.5027 21.46C70.9567 20.998 69.6127 20.242 68.7727 20.242C68.5627 20.242 68.3107 20.452 68.1847 20.788ZM59.9107 45.064C59.1127 45.064 58.6507 44.224 58.6087 43.51C58.4407 40.822 61.7167 39.058 63.6067 37.756C63.0607 39.646 62.5147 41.41 62.0107 42.88C61.4647 44.392 60.6247 45.064 59.9107 45.064ZM78.2969 24.736C78.2969 25.324 78.9689 27.424 79.4729 27.634C79.9769 27.886 80.6489 28.054 81.4889 28.096C80.2709 29.776 78.6749 32.002 77.4569 33.682C77.1629 34.144 76.4489 35.11 76.8689 35.656C77.4149 36.286 80.0609 37.756 80.5649 37.336C80.6489 37.294 80.6489 37.21 80.6909 37.126C80.7749 36.454 80.9849 36.118 81.2789 35.53C82.5389 33.304 84.3449 30.364 85.8989 28.012C88.1669 27.76 90.3929 27.214 92.7029 27.088C92.1989 30.238 91.8209 33.136 91.8209 35.152C91.8629 36.076 93.5849 37 94.5929 37C94.9709 37 95.0969 36.832 95.0969 36.496C95.0969 32.464 98.4149 17.008 100.893 12.556C101.061 12.262 101.229 12.094 101.439 11.842C101.481 11.8 101.523 11.716 101.523 11.632C101.523 11.002 98.6669 9.91 97.8269 9.91C97.6589 9.91 97.4069 10.12 97.1549 10.54C96.6089 10.162 96.0629 9.91 95.6849 10.33C91.6949 14.866 87.6629 19.948 83.7149 25.156H83.6729C81.9929 25.156 80.2289 24.778 78.7169 24.148C78.5909 24.106 78.5069 24.106 78.4229 24.19C78.3389 24.316 78.2969 24.526 78.2969 24.736ZM92.1149 24.694C90.7289 24.694 89.3429 24.82 87.9569 24.946C90.3509 21.418 92.9549 17.932 95.5169 14.74C94.6769 17.554 93.7949 21.292 93.1229 24.904C92.8289 24.778 92.4929 24.694 92.1149 24.694ZM105.174 34.144C105.048 35.488 106.056 37 107.484 37C111.096 37 114.75 27.592 115.842 24.778C116.094 24.064 115.044 23.644 114.75 24.358C113.658 27.214 111.726 32.128 109.206 34.69C108.828 35.026 108.45 35.026 108.576 34.396C109.122 31.33 110.34 26.458 111.768 22.762C111.894 22.342 112.398 21.796 111.936 21.46C111.432 20.998 110.046 20.242 109.248 20.242C109.038 20.242 108.786 20.452 108.618 20.788C108.24 21.67 107.904 22.636 107.568 23.644C106.896 25.618 103.956 34.816 101.94 34.816C101.478 34.816 101.184 34.27 101.394 33.304C101.982 30.238 103.116 26.038 104.334 22.762C104.502 22.342 104.964 21.796 104.544 21.46C104.04 20.998 102.654 20.242 101.856 20.242C101.604 20.242 101.394 20.452 101.226 20.788C99.7982 24.106 98.5802 28.6 97.9922 32.548C97.9082 33.094 97.8662 33.598 97.7822 34.144C97.6562 35.362 99.1682 37 100.764 37C102.654 37 104.208 34.816 105.468 32.254C105.426 32.38 105.426 32.464 105.384 32.548C105.342 33.094 105.258 33.598 105.174 34.144Z" fill="white"/>
<rect x="117" y="3" width="7" height="7" fill="white"/>
<rect x="128" y="12" width="5" height="5" fill="white"/>
<rect x="132" width="6" height="6" fill="white"/>
<rect x="137" y="18" width="4" height="4" fill="white"/>
</svg>
