<svg width="21" height="21" viewBox="0 0 21 21" fill="none" xmlns="http://www.w3.org/2000/svg">
<path d="M21 2.54263C21 7.84661 21 13.1506 21 18.4546C20.9869 18.5 20.9699 18.5442 20.9617 18.5907C20.7206 19.9922 19.5564 20.9945 18.1408 20.9956C13.0435 20.9994 7.94674 21.0005 2.84946 20.995C1.27631 20.9934 0.00663143 19.7221 0.00499103 18.1505C6.98079e-05 13.0461 -0.00485141 7.9423 0.00936544 2.83845C0.0126463 1.69727 0.565463 0.841528 1.58033 0.317145C1.87724 0.163494 2.22227 0.102799 2.54543 0C7.84941 0 13.1534 0 18.4574 0C18.4962 0.0120296 18.5339 0.0278869 18.5733 0.0355421C19.7653 0.258091 20.5363 0.953623 20.8961 2.10737C20.9409 2.24954 20.9661 2.39718 21 2.54263ZM11.1871 9.27868C11.1871 9.09715 11.1909 8.91506 11.186 8.73352C11.1778 8.41802 11.0313 8.27311 10.7136 8.27147C10.1055 8.26819 9.49747 8.26874 8.88943 8.27147C8.55697 8.27311 8.41043 8.41747 8.41043 8.74446C8.40934 11.3543 8.40934 13.9642 8.41043 16.5741C8.41043 16.9104 8.56135 17.0591 8.90091 17.0597C9.46138 17.0613 10.0213 17.0602 10.5818 17.0602C11.063 17.0602 11.1778 16.9476 11.1778 16.473C11.1783 15.1612 11.1756 13.8494 11.1794 12.5376C11.1811 12.0373 11.2893 11.5605 11.5671 11.1362C11.9056 10.6194 12.4021 10.4603 12.9904 10.5402C13.529 10.6129 13.8899 10.9311 14.0157 11.4424C14.1207 11.8678 14.1677 12.3162 14.1748 12.7552C14.194 14.0189 14.1792 15.2831 14.1797 16.5468C14.1797 16.917 14.3197 17.0558 14.6866 17.0564C15.2947 17.0575 15.9027 17.0575 16.5108 17.0564C16.8766 17.0558 17.0215 16.912 17.0209 16.5468C17.0204 15.112 17.0368 13.6766 17.0073 12.2429C16.9952 11.6458 16.9318 11.0405 16.8066 10.4576C16.5742 9.37929 15.9825 8.57112 14.8611 8.2753C14.5346 8.18891 14.1885 8.14571 13.8506 8.13969C12.8078 8.1211 11.8673 8.36388 11.1871 9.27868ZM4.3898 12.665C4.3898 13.9358 4.3898 15.2066 4.3898 16.4773C4.3898 16.9208 4.53196 17.0602 4.98198 17.0608C5.52168 17.0608 6.06137 17.0613 6.60106 17.0608C7.00351 17.0602 7.16154 16.9066 7.16208 16.5047C7.16318 13.9429 7.16318 11.3811 7.16208 8.81882C7.16208 8.41692 7.00734 8.26819 6.59778 8.2671C6.05153 8.26546 5.50472 8.26546 4.95792 8.2671C4.53634 8.26819 4.3898 8.41474 4.3898 8.83304C4.38925 10.1098 4.3898 11.3872 4.3898 12.665ZM7.55961 5.73048C7.56617 4.75499 6.77659 3.94846 5.80437 3.93752C4.8081 3.92604 3.99118 4.72218 3.98407 5.71135C3.97696 6.69668 4.77256 7.50595 5.75407 7.51142C6.75854 7.51743 7.55305 6.73387 7.55961 5.73048Z" fill="#2D2D2D"/>
</svg>
